<svg width="131" height="275" viewBox="0 0 131 275" fill="none" xmlns="http://www.w3.org/2000/svg">
	<path d="M130.277 44.1358L90.9469 50.9259V25.6944C90.9469 20.5247 88.8606 15.8179 85.4607 12.4228C82.0608 9.02778 77.3473 6.94444 72.1702 6.94444C61.8161 6.86728 53.3936 15.2778 53.3936 25.6944V113.194H11.2042V96.9907C11.2042 95.4475 11.2814 93.8272 11.436 92.1296H11.2042V4.93827H0V0H53.3936V7.79321C58.8798 4.16667 64.7523 2.08333 70.7794 2.08333H88.2424C111.423 2.08333 130.277 20.9877 130.277 44.1358Z" fill="#115628"/>
	<path d="M98.2877 166.512C95.506 165.355 93.1106 164.429 90.947 163.503C75.3385 157.022 75.9566 156.481 72.7886 151.775C72.7886 151.775 73.1749 164.275 88.7835 172.531C90.7925 173.611 93.0333 174.614 95.5832 175.463C117.837 183.333 121.701 196.219 121.701 196.219C121.701 196.219 121.469 175.926 98.2877 166.512ZM101.919 173.765C98.0559 172.222 93.8833 171.142 90.1743 169.29C89.7107 169.059 89.1698 168.827 88.7062 168.518C87.3153 167.747 85.9245 166.898 84.8427 165.741C86.079 166.667 87.5472 167.284 89.0153 167.901C89.4789 168.133 89.9425 168.287 90.4061 168.441C94.3469 169.985 98.5195 170.988 102.383 172.608C108.178 175.154 113.742 179.321 116.446 185.185C113.046 179.861 107.637 176.235 101.919 173.765Z" fill="#C7AC63"/>
	<path d="M124.018 200.926C123.014 200.231 121.778 199.46 120.232 198.843C117.682 197.84 114.36 197.299 110.187 198.148C98.7511 200.386 99.292 200.077 96.5103 198.843C96.5103 198.843 100.76 204.938 111.423 202.315C115.441 201.312 118.687 201.312 121.082 201.62C122.241 201.775 123.246 202.006 124.018 202.315C125.873 202.932 126.8 203.627 126.877 203.781C126.8 203.627 125.873 202.315 124.018 200.926ZM113.432 200.077C111.269 200.463 109.183 201.235 106.942 201.389C106.169 201.389 105.474 201.466 104.701 201.312C105.474 201.389 106.169 201.235 106.864 201.08C109.028 200.694 111.114 199.923 113.278 199.537C116.214 199.074 119.382 199.228 121.932 200.849C119.382 199.691 116.291 199.614 113.432 200.077Z" fill="#C7AC63"/>
	<path d="M130.277 123.688V179.089C129.427 169.985 129.273 160.494 129.195 151.389C129.195 150.463 129.195 149.537 129.195 148.534L126.414 146.373L129.273 144.136C129.35 137.346 129.659 130.401 130.277 123.688Z" fill="#C7AC63"/>
	<path d="M130.277 75.3858V116.744C129.273 102.932 129.273 89.1204 130.277 75.3858Z" fill="#C7AC63"/>
	<path d="M130.2 59.8765L123.787 83.7963V142.593L118.764 146.451L123.787 150.309V194.599C123.169 189.275 119.691 172.917 99.0603 164.506C95.8922 163.194 93.1877 162.114 90.8696 161.188V66.5895L130.2 59.8765Z" fill="#0E642D"/>
	<path d="M119.459 196.296C117.914 195.833 116.137 195.602 114.205 195.602C112.814 195.602 111.269 195.756 109.801 196.065C104.237 197.145 101.301 197.685 99.8329 197.685C99.0602 197.685 98.8283 197.608 97.9011 197.222L97.3602 196.991L90.9468 194.29V180.787C84.9197 185.031 78.12 187.5 70.702 187.5H53.3163C30.058 187.5 11.2041 168.673 11.2041 145.448V134.259H53.3936V163.889C53.3936 174.228 61.816 182.639 72.1702 182.639C78.6609 182.639 84.3016 179.398 87.7015 174.46C89.7878 175.617 92.1831 176.62 94.8876 177.623C113.123 183.951 118.378 193.904 119.459 196.296Z" fill="#0E642D"/>
	<path d="M130.277 209.491V215.586C130.277 248.457 103.619 275 70.7792 275C37.9394 275 11.2812 248.38 11.2812 215.586V210.031H53.4707V250.154C53.4707 260.494 61.8931 268.904 72.2473 268.904C82.6788 268.904 91.024 260.494 91.024 250.154V194.83L94.8102 200.154C94.9647 200.386 98.4419 205.17 106.478 205.17C108.255 205.17 110.11 204.938 112.119 204.475C114.36 203.935 116.446 203.627 118.378 203.627C119.768 203.627 120.927 203.781 121.932 203.935C122.859 204.09 123.632 204.398 124.173 204.63C125.1 205.015 125.564 205.401 125.641 205.401L130.277 209.491Z" fill="#0E642D"/>
</svg>