<svg width="221" height="202" viewBox="0 0 221 202" fill="none" xmlns="http://www.w3.org/2000/svg">
	<path d="M105.971 66.4963C118.52 61.2741 129.326 57.0963 139.086 52.9185C209.497 24.0222 206.708 21.237 221 0C221 0 219.257 56.4 148.846 93.6519C139.783 98.5259 129.674 103.052 118.171 106.881C17.7827 142.393 0.354111 200.533 0.354111 200.533C0.354111 200.533 1.39982 108.97 105.971 66.4963ZM89.5884 99.2222C107.017 92.2593 125.84 87.3852 142.571 79.0296C144.663 77.9852 147.103 76.9408 149.194 75.5482C155.468 72.0667 161.743 68.237 166.623 63.0148C161.046 67.1926 154.423 69.9778 147.8 72.763C145.708 73.8074 143.617 74.5037 141.526 75.2C123.748 82.163 104.926 86.6889 87.497 94C61.3541 105.489 36.257 124.289 24.057 150.748C39.3941 127.074 64.1427 110.363 89.5884 99.2222Z" fill="#C7AC63"/>
	<path d="M12.8971 188.431C17.4286 185.298 23.0057 181.816 29.9772 179.031C41.48 174.505 56.4686 172.068 75.2914 175.898C126.88 185.994 124.44 184.601 136.989 179.031C136.989 179.031 117.817 206.535 69.7143 194.698C51.5886 190.172 36.9486 190.172 26.1429 191.564C20.9143 192.261 16.3829 193.305 12.8971 194.698C4.53143 197.483 0.348583 200.616 1.1767e-05 201.312C0.348583 200.616 4.88 194.698 12.8971 188.431ZM60.6514 184.601C70.4114 186.342 79.8229 189.823 89.9314 190.52C93.4172 190.52 96.5543 190.868 100.04 190.172C96.5543 190.52 93.4172 189.823 90.28 189.127C80.52 187.386 71.1086 183.905 61.3486 182.164C48.1029 180.075 33.8114 180.772 22.3086 188.083C34.16 182.512 47.7543 182.512 60.6514 184.601Z" fill="#C7AC63"/>
</svg>