<svg width="186" height="173" viewBox="0 0 186 173" fill="none" xmlns="http://www.w3.org/2000/svg">
	<path d="M157.813 145.936C154.739 142.533 150.888 138.653 145.791 135.094C137.368 129.277 125.766 124.547 109.95 124.281C66.6737 123.221 68.8861 122.517 59.8118 115.651C59.8118 115.651 70.2384 141.78 111.029 140.773C126.411 140.34 138.174 143 146.604 146.11C150.679 147.633 154.131 149.316 156.679 151.096C162.897 154.909 165.691 158.249 165.845 158.886C165.691 158.249 163.121 152.553 157.813 145.936ZM120.138 134.107C111.981 133.767 103.789 134.924 95.5414 133.66C92.7407 133.027 90.1572 132.744 87.4825 131.537C90.2202 132.457 92.8667 132.454 95.5133 132.45C103.67 132.79 111.862 131.634 120.018 131.974C131.039 132.66 142.395 135.83 150.315 143.94C141.8 137.2 130.878 134.73 120.138 134.107Z" fill="#165628"/>
	<path d="M96.5877 58.2244C86.2099 53.9719 77.2762 50.579 69.2036 47.1736C10.976 23.6545 13.249 21.2728 1.30127 3.53864C1.30127 3.53864 3.21075 51.07 61.5086 81.6339C69.0129 85.6347 77.3755 89.3295 86.8804 92.4205C169.85 121.157 184.692 169.968 184.692 169.968C184.692 169.968 183.061 92.7818 96.5877 58.2244ZM110.354 85.6201C95.9432 79.9584 80.4014 76.0746 66.5526 69.2303C64.8215 68.3748 62.8033 67.5235 61.0693 66.3744C55.8731 63.5143 50.6739 60.3607 46.6113 56.0162C51.2393 59.4717 56.7167 61.7406 62.1941 64.0094C63.9252 64.865 65.6534 65.427 67.3815 65.989C82.0798 71.6465 97.6187 75.2368 112.033 81.192C133.658 90.5652 154.484 106.115 164.753 128.277C151.924 108.501 131.403 94.7081 110.354 85.6201Z" fill="#165628"/>
</svg>