<svg width="221" height="202" viewBox="0 0 221 202" fill="none" xmlns="http://www.w3.org/2000/svg">
	<path d="M115.029 66.4963C102.48 61.2741 91.6743 57.0963 81.9143 52.9185C11.5029 24.0222 14.2914 21.237 0 0C0 0 1.74286 56.4 72.1543 93.6519C81.2171 98.5259 91.3257 103.052 102.829 106.881C203.217 142.393 220.646 200.533 220.646 200.533C220.646 200.533 219.6 108.97 115.029 66.4963ZM131.411 99.2222C113.983 92.2593 95.16 87.3852 78.4286 79.0296C76.3371 77.9852 73.8971 76.9408 71.8057 75.5482C65.5314 72.0667 59.2571 68.237 54.3771 63.0148C59.9543 67.1926 66.5771 69.9778 73.2 72.763C75.2914 73.8074 77.3829 74.5037 79.4743 75.2C97.2514 82.163 116.074 86.6889 133.503 94C159.646 105.489 184.743 124.289 196.943 150.748C181.606 127.074 156.857 110.363 131.411 99.2222Z" fill="#C7AC63"/>
	<path d="M208.103 188.431C203.571 185.298 197.994 181.816 191.023 179.031C179.52 174.505 164.531 172.068 145.708 175.898C94.1198 185.994 96.5598 184.601 84.0112 179.031C84.0112 179.031 103.183 206.535 151.286 194.698C169.411 190.172 184.051 190.172 194.857 191.564C200.086 192.261 204.617 193.305 208.103 194.698C216.468 197.483 220.651 200.616 221 201.312C220.651 200.616 216.12 194.698 208.103 188.431ZM160.348 184.601C150.588 186.342 141.177 189.823 131.068 190.52C127.583 190.52 124.446 190.868 120.96 190.172C124.446 190.52 127.583 189.823 130.72 189.127C140.48 187.386 149.891 183.905 159.651 182.164C172.897 180.075 187.188 180.772 198.691 188.083C186.84 182.512 173.246 182.512 160.348 184.601Z" fill="#C7AC63"/>
</svg>