<svg width="205" height="233" viewBox="0 0 205 233" fill="none" xmlns="http://www.w3.org/2000/svg">
	<path d="M90.9143 65.9304C103.36 60.7526 114.077 56.6104 123.757 52.4682C193.591 23.8178 190.826 21.0563 205 0C205 0 203.271 55.92 133.437 92.8548C124.449 97.6874 114.423 102.175 103.014 105.972C3.44858 141.181 -13.8371 198.827 -13.8371 198.827C-13.8371 198.827 -12.8 108.043 90.9143 65.9304ZM74.6657 98.3778C91.9514 91.4741 110.62 86.6415 127.214 78.357C129.289 77.3215 131.709 76.2859 133.783 74.9052C140.006 71.4533 146.229 67.6563 151.069 62.4785C145.537 66.6208 138.969 69.3822 132.4 72.1437C130.326 73.1793 128.251 73.8696 126.177 74.56C108.546 81.4637 89.8771 85.9511 72.5914 93.2C46.6629 104.591 21.7714 123.231 9.67143 149.465C24.8829 125.993 49.4286 109.424 74.6657 98.3778Z" fill="#C7AC63"/>
	<path d="M-1.44639 185.175C3.0479 182.068 8.57933 178.616 15.4936 175.855C26.9022 171.367 41.7679 168.951 60.4365 172.748C111.602 182.758 109.182 181.378 121.628 175.855C121.628 175.855 102.614 203.124 54.9051 191.388C36.9279 186.901 22.4079 186.901 11.6908 188.281C6.50505 188.972 2.01076 190.007 -1.44639 191.388C-9.74353 194.15 -13.8921 197.256 -14.2378 197.947C-13.8921 197.256 -9.39781 191.388 -1.44639 185.175ZM45.9165 181.378C55.5965 183.104 64.9308 186.555 74.9565 187.246C78.4136 187.246 81.5251 187.591 84.9822 186.901C81.5251 187.246 78.4136 186.555 75.3022 185.865C65.6222 184.139 56.2879 180.687 46.6079 178.961C33.4708 176.89 19.2965 177.581 7.88792 184.83C19.6422 179.307 33.1251 179.307 45.9165 181.378Z" fill="#C7AC63"/>
</svg>